<svg xmlns="http://www.w3.org/2000/svg" viewBox="0 0 400 300" width="406" height="306" class="illustration styles_illustrationTablet__1DWOa"><g id="_474_growth_outline" data-name="#474_growth_outline"><path d="M254.57,153.78c-3.25-5.74-10.6-9.15-17-7.3-1.58-4.49-6.16-7.47-10.87-8.15s-9.51.61-13.85,2.57a13.94,13.94,0,0,0-23,6,4.8,4.8,0,0,1-1.22,2.49,4.55,4.55,0,0,1-2.63.71c-6.06.47-13.59,4-18.51,7.68-3.78,2.8-5,7.72-5.35,12.18-.62,8.84,1.87,20.58,8,27.32,6.67,7.33,16.84,10.78,26.75,11.07S216.59,206.08,226,203c16.32-5.37,32.67-12.75,45.17-24.83,5.24-5.05,10.25-11,3.56-16.77-2.67-2.3-5.49-4.36-9-5.18-.83-.19-10.22-.57-9.86.92A13.1,13.1,0,0,0,254.57,153.78Z" fill="#725858"></path><path d="M198.4,209.38q-.77,0-1.53,0c-11.16-.32-21.17-4.47-27.46-11.39-6.55-7.2-8.87-19.28-8.26-28.06.42-6.05,2.36-10.4,5.76-12.91,4.81-3.56,12.56-7.37,19-7.88h.15a3.54,3.54,0,0,0,1.92-.47,3.47,3.47,0,0,0,.81-1.7l.1-.31a14.93,14.93,0,0,1,24.11-6.9c5-2.18,9.68-3,13.8-2.38,5.14.74,9.49,3.82,11.33,8a16.63,16.63,0,0,1,17.29,8,15.73,15.73,0,0,1,1,2.21c2.88-.83,9.22-.33,9.53-.26,3.79.88,6.76,3.11,9.4,5.39,2.3,2,3.5,4.17,3.56,6.52.12,4.19-3.33,8.11-7.07,11.73-10.8,10.43-25.27,18.39-45.56,25.06C218.07,206.64,208.36,209.38,198.4,209.38Zm4.68-71.33a12.5,12.5,0,0,0-3.16.4,13.2,13.2,0,0,0-9.1,8.75l-.09.29a5,5,0,0,1-1.45,2.68,5.12,5.12,0,0,1-3.05.93h-.14c-6.07.47-13.41,4.1-18,7.49-2.91,2.15-4.57,6-4.95,11.44-.57,8.08,1.62,19.85,7.74,26.58,5.93,6.52,15.42,10.43,26,10.74,10.19.28,20.25-2.53,28.77-5.33,20-6.57,34.22-14.39,44.79-24.6,3.41-3.3,6.56-6.82,6.47-10.24-.06-1.78-1-3.43-2.87-5.05-2.45-2.11-5.18-4.18-8.56-5-1.11-.23-7.28-.31-8.67.25a1,1,0,0,1-1.93-.07,11.87,11.87,0,0,0-1.23-3.09h0c-3.11-5.49-10.08-8.49-15.87-6.83a1,1,0,0,1-1.22-.63c-1.36-3.86-5.32-6.81-10.07-7.49-3.91-.57-8.38.27-13.3,2.49a1,1,0,0,1-1.1-.19A13.29,13.29,0,0,0,203.08,138.05Zm53.8,18.83Z" fill="#093f68"></path><path d="M107.81,172.72h25.61s20.31-30.61,34.92-26c35.9,11.38,49.25,18.31,58.34,23.09,4.16,2.19.55,10.51.55,10.51a316.41,316.41,0,0,0,47.39-24.6c7.9-5,20.47,1.94,17,10.7s-50.3,43.71-71.58,49.41-111.21.39-111.21.39Z" fill="#ffc9b0"></path><path d="M179.17,219.51c-31.49,0-68.07-2.12-70.43-2.26a1,1,0,0,1-.94-1l-1-43.53a1,1,0,0,1,.29-.72.94.94,0,0,1,.71-.3h25.08c2.7-4,21.41-30.47,35.75-25.93,36.46,11.56,49.73,18.55,58.5,23.17,3.47,1.82,2.63,6.73,1.78,9.61a326.29,326.29,0,0,0,45.17-23.67c5.16-3.26,11.68-1.79,15.45,1.35,3.38,2.82,4.5,6.77,3,10.57-3.6,9-50.67,44.23-72.24,50C212.68,218.85,196.71,219.51,179.17,219.51Zm-69.4-4.2c9.57.53,90.25,4.86,110-.42,20.56-5.5,67.49-40.27,70.91-48.81,1.2-3,.32-6-2.4-8.29-3.13-2.61-8.79-3.92-13.11-1.2a320.49,320.49,0,0,1-47.56,24.69,1,1,0,0,1-1.08-.24,1,1,0,0,1-.2-1.09c0-.07,3.14-7.52-.1-9.22-8.71-4.59-21.88-11.52-58.17-23-13.72-4.35-33.58,25.27-33.78,25.57a1,1,0,0,1-.84.45H108.83Z" fill="#093f68"></path><path d="M216.18,185.75c-4.88,0-11-1.18-18.81-2.68l-.76-.15A330.86,330.86,0,0,1,164,174.63a1,1,0,0,1,.6-1.91A327.27,327.27,0,0,0,197,181l.76.15c15.22,2.93,23.6,4.55,28.72-1.4A1,1,0,1,1,228,181C225,184.48,221.25,185.75,216.18,185.75Z" fill="#093f68"></path><path d="M280,73.63s-13.35-7-35.64,4.35c-17.08,8.7-20.21,28.77-20.75,37.66-.47-7.09-4-21.34-23.29-31.94-26.71-14.67-47.94,3.5-47.94,3.5s-.66,26.05,33.49,32.84c18.07,3.59,27.55,3.38,32.48,2.39C221.75,132.35,218,153,218,153l9.25-1c2.68-9.26,1-26,.27-31.84C288.58,121.05,280,73.63,280,73.63Z" fill="#ee14ff"></path><path d="M218,154a1,1,0,0,1-.73-.32,1,1,0,0,1-.26-.86c0-.2,3.49-19.44.66-29.29-5,.82-14.48.93-32-2.55-34.58-6.87-34.31-33.57-34.3-33.84a1,1,0,0,1,.35-.74c.22-.18,22.07-18.44,49.07-3.62,14.62,8,20.4,18.11,22.61,25.87,1.69-10,6.57-24.51,20.5-31.6,22.49-11.46,36-4.64,36.56-4.35a1,1,0,0,1,.52.71c.13.75,3.17,18.39-8.51,32.17-8.83,10.42-23.57,15.63-43.84,15.55.83,7.18,2.12,22.3-.43,31.11a1,1,0,0,1-.85.71l-9.25,1Zm.35-32.61a1,1,0,0,1,.95.67c3,8.71.68,25-.09,29.8l7.25-.82c2.41-9.33.67-25.87.07-30.8a1,1,0,0,1,.24-.79,1.08,1.08,0,0,1,.76-.33c20.22.29,34.83-4.7,43.42-14.83,10-11.81,8.54-27,8.15-30-2.47-1-15-5.28-34.28,4.55-16.76,8.54-19.72,28.6-20.21,36.83a1,1,0,0,1-1,.94h0a1,1,0,0,1-1-.93c-.47-7.22-4.07-20.86-22.77-31.13-24-13.16-43.62.89-46.46,3.1.08,3.54,1.86,25.25,32.69,31.38,18.28,3.63,27.54,3.3,32.09,2.39A.62.62,0,0,1,218.33,121.43Z" fill="#093f68"></path><path d="M211.74,155.5s2.2-6.73,11.46-7.06,11.69,4.6,11.69,4.6" fill="#725858"></path><path d="M211.74,156.5a.84.84,0,0,1-.31-.05,1,1,0,0,1-.64-1.26c.1-.3,2.53-7.4,12.38-7.75s12.5,4.93,12.62,5.16a1,1,0,0,1-1.8.88c-.09-.17-2.34-4.34-10.75-4s-10.53,6.31-10.55,6.37A1,1,0,0,1,211.74,156.5Z" fill="#093f68"></path><path d="M231.93,113.27a1,1,0,0,1-.89-1.46c.12-.23,12-22.57,37.37-30.49a1,1,0,0,1,1.26.66,1,1,0,0,1-.66,1.25c-24.57,7.66-36.08,29.28-36.19,29.5A1,1,0,0,1,231.93,113.27Z" fill="#093f68"></path><path d="M218,117.76a1,1,0,0,1-.74-.33c-16-17.51-57.09-27.41-57.5-27.5a1,1,0,0,1,.46-2,210,210,0,0,1,23,7.21c16.67,6.3,28.63,13.33,35.55,20.89a1,1,0,0,1-.06,1.41A1,1,0,0,1,218,117.76Z" fill="#093f68"></path></g></svg>