<?xml version="1.0" encoding="UTF-8" standalone="no"?> <svg width="64" height="64" viewBox="0 0 64 64" fill="none" xmlns="http://www.w3.org/2000/svg">
<path d="M39 3H13C9.68629 3 7 5.68629 7 9V55C7 58.3137 9.68629 61 13 61H39C42.3137 61 45 58.3137 45 55V9C45 5.68629 42.3137 3 39 3Z" fill="#AAE1F9"/>
<path d="M39 3H37V23C37 30.4261 34.05 37.548 28.799 42.799C23.548 48.05 16.4261 51 9 51H7V55C7 56.5913 7.63214 58.1174 8.75736 59.2426C9.88258 60.3679 11.4087 61 13 61H39C40.5913 61 42.1174 60.3679 43.2426 59.2426C44.3679 58.1174 45 56.5913 45 55V9C45 7.4087 44.3679 5.88258 43.2426 4.75736C42.1174 3.63214 40.5913 3 39 3V3Z" fill="#57B7EB"/>
<path d="M20 9C20 9.53043 19.7893 10.0391 19.4142 10.4142C19.0391 10.7893 18.5304 11 18 11H13C12.4696 11 11.9609 11.2107 11.5858 11.5858C11.2107 11.9609 11 12.4696 11 13V51C11 51.5304 11.2107 52.0391 11.5858 52.4142C11.9609 52.7893 12.4696 53 13 53H39C39.5304 53 40.0391 52.7893 40.4142 52.4142C40.7893 52.0391 41 51.5304 41 51V9C41 8.46957 40.7893 7.96086 40.4142 7.58579C40.0391 7.21071 39.5304 7 39 7H22C21.4696 7 20.9609 7.21071 20.5858 7.58579C20.2107 7.96086 20 8.46957 20 9Z" fill="#57B7EB"/>
<path d="M39 7H22C21.4696 7 20.9609 7.21071 20.5858 7.58579C20.2107 7.96086 20 8.46957 20 9C20 9.53043 19.7893 10.0391 19.4142 10.4142C19.0391 10.7893 18.5304 11 18 11H13C12.4696 11 11.9609 11.2107 11.5858 11.5858C11.2107 11.9609 11 12.4696 11 13V51C11 51.5304 11.2107 52.0391 11.5858 52.4142C11.9609 52.7893 12.4696 53 13 53H39C39.5304 53 40.0391 52.7893 40.4142 52.4142C40.7893 52.0391 41 51.5304 41 51V9C41 8.46957 40.7893 7.96086 40.4142 7.58579C40.0391 7.21071 39.5304 7 39 7V7ZM36 25C36 30.3043 33.8929 35.3914 30.1421 39.1421C26.3914 42.8929 21.3043 45 16 45C15.4696 45 14.9609 44.7893 14.5858 44.4142C14.2107 44.0391 14 43.5304 14 43V16C14 15.4696 14.2107 14.9609 14.5858 14.5858C14.9609 14.2107 15.4696 14 16 14H21C21.5304 14 22.0391 13.7893 22.4142 13.4142C22.7893 13.0391 23 12.5304 23 12C23 11.4696 23.2107 10.9609 23.5858 10.5858C23.9609 10.2107 24.4696 10 25 10H34C34.5304 10 35.0391 10.2107 35.4142 10.5858C35.7893 10.9609 36 11.4696 36 12V25Z" fill="#4891D3"/>
<path d="M17 49C18.1046 49 19 48.1046 19 47C19 45.8954 18.1046 45 17 45C15.8954 45 15 45.8954 15 47C15 48.1046 15.8954 49 17 49Z" fill="#E59730"/>
<path d="M17 41C18.1046 41 19 40.1046 19 39C19 37.8954 18.1046 37 17 37C15.8954 37 15 37.8954 15 39C15 40.1046 15.8954 41 17 41Z" fill="#FCBC04"/>
<path d="M53 13H27C25.9391 13 24.9217 13.4214 24.1716 14.1716C23.4214 14.9217 23 15.9391 23 17V33C23 34.0609 23.4214 35.0783 24.1716 35.8284C24.9217 36.5786 25.9391 37 27 37H29V45L37 37H53C54.0609 37 55.0783 36.5786 55.8284 35.8284C56.5786 35.0783 57 34.0609 57 33V17C57 15.9391 56.5786 14.9217 55.8284 14.1716C55.0783 13.4214 54.0609 13 53 13V13Z" fill="#F9E109"/>
<path d="M49.853 18.916C49.0815 17.9325 47.97 17.2732 46.7371 17.0676C45.5041 16.8621 44.2389 17.1251 43.19 17.805C42.5214 18.2337 41.9707 18.8229 41.5882 19.5189C41.2056 20.215 41.0034 20.9958 41 21.79C40.9966 20.9958 40.7944 20.215 40.4119 19.5189C40.0293 18.8229 39.4786 18.2337 38.81 17.805C37.7611 17.1251 36.4959 16.8621 35.2629 17.0676C34.03 17.2732 32.9185 17.9325 32.147 18.916C31.266 20.0553 30.8684 21.4954 31.04 22.9253C31.2115 24.3553 31.9385 25.6604 33.064 26.559L41 33L48.936 26.559C50.0615 25.6604 50.7885 24.3553 50.96 22.9253C51.1316 21.4954 50.734 20.0553 49.853 18.916V18.916Z" fill="#F89C8D"/>
<path d="M49.853 18.916C49.1401 18.0026 48.127 17.371 46.993 17.133C46.9812 18.6735 46.6445 20.1942 46.0049 21.5956C45.3653 22.9971 44.4372 24.2479 43.2813 25.2663C42.1253 26.2846 40.7675 27.0476 39.2966 27.5054C37.8257 27.9632 36.2747 28.1055 34.745 27.923L41 33L48.936 26.559C50.0615 25.6604 50.7885 24.3553 50.96 22.9253C51.1316 21.4954 50.734 20.0553 49.853 18.916V18.916Z" fill="#F8664F"/>
<path d="M53 13H51C51 17.7739 49.1036 22.3523 45.7279 25.7279C42.3523 29.1036 37.7739 31 33 31H23V33C23 34.0609 23.4214 35.0783 24.1716 35.8284C24.9217 36.5786 25.9391 37 27 37H29V45L37 37H53C54.0609 37 55.0783 36.5786 55.8284 35.8284C56.5786 35.0783 57 34.0609 57 33V17C57 15.9391 56.5786 14.9217 55.8284 14.1716C55.0783 13.4214 54.0609 13 53 13V13Z" fill="#FCBC04"/>
<path d="M37.734 30.35L41 33L48.936 26.559C50.0381 25.6771 50.7573 24.4039 50.9436 23.0047C51.1299 21.6056 50.769 20.1885 49.936 19.049C48.9602 21.7747 47.3417 24.2251 45.2176 26.1923C43.0935 28.1596 40.5265 29.5857 37.734 30.35V30.35Z" fill="#CC5144"/>
<path d="M45 40C44.7348 40 44.4804 40.1054 44.2929 40.2929C44.1054 40.4804 44 40.7348 44 41V55C43.9984 56.3256 43.4711 57.5964 42.5338 58.5338C41.5964 59.4711 40.3256 59.9984 39 60H13C11.6744 59.9984 10.4036 59.4711 9.46622 58.5338C8.52888 57.5964 8.00159 56.3256 8 55V47C8 46.7348 7.89464 46.4804 7.70711 46.2929C7.51957 46.1054 7.26522 46 7 46C6.73478 46 6.48043 46.1054 6.29289 46.2929C6.10536 46.4804 6 46.7348 6 47V55C6.00212 56.8559 6.7403 58.6351 8.05259 59.9474C9.36489 61.2597 11.1441 61.9979 13 62H39C40.8559 61.9979 42.6351 61.2597 43.9474 59.9474C45.2597 58.6351 45.9979 56.8559 46 55V41C46 40.7348 45.8946 40.4804 45.7071 40.2929C45.5196 40.1054 45.2652 40 45 40Z" fill="#39519D"/>
<path d="M12 8C12.5523 8 13 7.55228 13 7C13 6.44772 12.5523 6 12 6C11.4477 6 11 6.44772 11 7C11 7.55228 11.4477 8 12 8Z" fill="#39519D"/>
<path d="M16 8C16.5523 8 17 7.55228 17 7C17 6.44772 16.5523 6 16 6C15.4477 6 15 6.44772 15 7C15 7.55228 15.4477 8 16 8Z" fill="#39519D"/>
<path d="M53 12H46V9C45.9979 7.14413 45.2597 5.36489 43.9474 4.05259C42.6351 2.7403 40.8559 2.00212 39 2H13C11.1441 2.00212 9.36489 2.7403 8.05259 4.05259C6.7403 5.36489 6.00212 7.14413 6 9V43C6 43.2652 6.10536 43.5196 6.29289 43.7071C6.48043 43.8946 6.73478 44 7 44C7.26522 44 7.51957 43.8946 7.70711 43.7071C7.89464 43.5196 8 43.2652 8 43V9C8.00159 7.6744 8.52888 6.40356 9.46622 5.46622C10.4036 4.52888 11.6744 4.00159 13 4H39C40.3256 4.00159 41.5964 4.52888 42.5338 5.46622C43.4711 6.40356 43.9984 7.6744 44 9V12H27C25.6744 12.0016 24.4036 12.5289 23.4662 13.4662C22.5289 14.4036 22.0016 15.6744 22 17V19C22 19.2652 22.1054 19.5196 22.2929 19.7071C22.4804 19.8946 22.7348 20 23 20C23.2652 20 23.5196 19.8946 23.7071 19.7071C23.8946 19.5196 24 19.2652 24 19V17C24 16.2044 24.3161 15.4413 24.8787 14.8787C25.4413 14.3161 26.2044 14 27 14H53C53.7956 14 54.5587 14.3161 55.1213 14.8787C55.6839 15.4413 56 16.2044 56 17V26C56 26.2652 56.1054 26.5196 56.2929 26.7071C56.4804 26.8946 56.7348 27 57 27C57.2652 27 57.5196 26.8946 57.7071 26.7071C57.8946 26.5196 58 26.2652 58 26V17C57.9984 15.6744 57.4711 14.4036 56.5338 13.4662C55.5964 12.5289 54.3256 12.0016 53 12V12Z" fill="#39519D"/>
<path d="M57 29C56.7348 29 56.4804 29.1054 56.2929 29.2929C56.1054 29.4804 56 29.7348 56 30V33C56 33.7956 55.6839 34.5587 55.1213 35.1213C54.5587 35.6839 53.7956 36 53 36H37C36.7348 36.0001 36.4805 36.1054 36.293 36.293L30 42.586V37C30 36.7348 29.8946 36.4804 29.7071 36.2929C29.5196 36.1054 29.2652 36 29 36H27C26.2044 36 25.4413 35.6839 24.8787 35.1213C24.3161 34.5587 24 33.7956 24 33V23C24 22.7348 23.8946 22.4804 23.7071 22.2929C23.5196 22.1054 23.2652 22 23 22C22.7348 22 22.4804 22.1054 22.2929 22.2929C22.1054 22.4804 22 22.7348 22 23V33C22.0016 34.3256 22.5289 35.5964 23.4662 36.5338C24.4036 37.4711 25.6744 37.9984 27 38H28V45C28 45.1978 28.0587 45.391 28.1686 45.5555C28.2785 45.7199 28.4346 45.848 28.6173 45.9237C28.8 45.9993 29.0011 46.0192 29.195 45.9806C29.389 45.942 29.5671 45.8468 29.707 45.707L37.414 38H40V51C40 51.2652 39.8946 51.5196 39.7071 51.7071C39.5196 51.8946 39.2652 52 39 52H13C12.7348 52 12.4804 51.8946 12.2929 51.7071C12.1054 51.5196 12 51.2652 12 51V13C12 12.7348 12.1054 12.4804 12.2929 12.2929C12.4804 12.1054 12.7348 12 13 12H18C18.7956 12 19.5587 11.6839 20.1213 11.1213C20.6839 10.5587 21 9.79565 21 9C21 8.73478 21.1054 8.48043 21.2929 8.29289C21.4804 8.10536 21.7348 8 22 8H39C39.2652 8 39.5196 8.10536 39.7071 8.29289C39.8946 8.48043 40 8.73478 40 9C40 9.26522 40.1054 9.51957 40.2929 9.70711C40.4804 9.89464 40.7348 10 41 10C41.2652 10 41.5196 9.89464 41.7071 9.70711C41.8946 9.51957 42 9.26522 42 9C42 8.20435 41.6839 7.44129 41.1213 6.87868C40.5587 6.31607 39.7956 6 39 6H22C21.2044 6 20.4413 6.31607 19.8787 6.87868C19.3161 7.44129 19 8.20435 19 9C19 9.26522 18.8946 9.51957 18.7071 9.70711C18.5196 9.89464 18.2652 10 18 10H13C12.2044 10 11.4413 10.3161 10.8787 10.8787C10.3161 11.4413 10 12.2044 10 13V51C10 51.7956 10.3161 52.5587 10.8787 53.1213C11.4413 53.6839 12.2044 54 13 54H39C39.7956 54 40.5587 53.6839 41.1213 53.1213C41.6839 52.5587 42 51.7956 42 51V38H53C54.3256 37.9984 55.5964 37.4711 56.5338 36.5338C57.4711 35.5964 57.9984 34.3256 58 33V30C58 29.7348 57.8946 29.4804 57.7071 29.2929C57.5196 29.1054 57.2652 29 57 29Z" fill="#39519D"/>
<path d="M34 23C34 23.2652 34.1054 23.5196 34.2929 23.7071C34.4804 23.8946 34.7348 24 35 24C35.2652 24 35.5196 23.8946 35.7071 23.7071C35.8946 23.5196 36 23.2652 36 23C36 22.7348 36.1054 22.4804 36.2929 22.2929C36.4804 22.1054 36.7348 22 37 22C37.2652 22 37.5196 21.8946 37.7071 21.7071C37.8946 21.5196 38 21.2652 38 21C38 20.7348 37.8946 20.4804 37.7071 20.2929C37.5196 20.1054 37.2652 20 37 20C36.2044 20 35.4413 20.3161 34.8787 20.8787C34.3161 21.4413 34 22.2044 34 23Z" fill="#39519D"/>
<path d="M48.306 25.783L46.406 27.325C46.2093 27.4949 46.0864 27.7348 46.0635 27.9937C46.0406 28.2526 46.1194 28.5103 46.2832 28.7121C46.4471 28.914 46.6831 29.044 46.9412 29.0748C47.1993 29.1056 47.4593 29.0346 47.666 28.877L49.566 27.336C50.8962 26.2746 51.7553 24.7322 51.9574 23.0424C52.1595 21.3527 51.6884 19.6512 50.646 18.306C49.7206 17.1241 48.3865 16.3312 46.9061 16.0832C45.4256 15.8352 43.906 16.1501 42.646 16.966C41.9971 17.3859 41.4377 17.93 41 18.567C40.5622 17.9303 40.0028 17.3866 39.354 16.967C38.0939 16.1514 36.5743 15.8366 35.094 16.0846C33.6136 16.3325 32.2795 17.1253 31.354 18.307C30.3117 19.6522 29.8407 21.3535 30.0426 23.0432C30.2445 24.7329 31.1031 26.2753 32.433 27.337L40.369 33.777C40.5472 33.9215 40.7696 34.0004 40.999 34.0004C41.2284 34.0004 41.4508 33.9215 41.629 33.777L44.561 31.4C44.7633 31.2318 44.8911 30.9906 44.9168 30.7287C44.9425 30.4669 44.8639 30.2054 44.6981 30.0011C44.5323 29.7968 44.2927 29.666 44.0312 29.6372C43.7697 29.6083 43.5073 29.6837 43.301 29.847L41 31.712L33.694 25.783C32.7717 25.0482 32.1755 23.98 32.0342 22.8092C31.893 21.6385 32.218 20.4591 32.939 19.526C33.5561 18.7403 34.4449 18.2139 35.4306 18.0505C36.4162 17.8871 37.4273 18.0984 38.265 18.643C38.7944 18.9805 39.2306 19.4455 39.5338 19.9953C39.8369 20.5451 39.9972 21.1622 40 21.79C40 22.0552 40.1054 22.3096 40.2929 22.4971C40.4804 22.6847 40.7348 22.79 41 22.79C41.2652 22.79 41.5196 22.6847 41.7071 22.4971C41.8946 22.3096 42 22.0552 42 21.79C42.0028 21.1622 42.1631 20.5451 42.4662 19.9953C42.7693 19.4455 43.2056 18.9805 43.735 18.643C44.5727 18.0984 45.5838 17.8871 46.5694 18.0505C47.5551 18.2139 48.4439 18.7403 49.061 19.526C49.7823 20.459 50.1074 21.6384 49.9661 22.8093C49.8249 23.9801 49.2285 25.0483 48.306 25.783V25.783Z" fill="#39519D"/>
<path d="M17 44C16.4067 44 15.8266 44.1759 15.3333 44.5056C14.8399 44.8352 14.4554 45.3038 14.2284 45.852C14.0013 46.4001 13.9419 47.0033 14.0576 47.5853C14.1734 48.1672 14.4591 48.7018 14.8787 49.1213C15.2982 49.5409 15.8328 49.8266 16.4147 49.9424C16.9967 50.0581 17.5999 49.9987 18.1481 49.7716C18.6962 49.5446 19.1648 49.1601 19.4944 48.6667C19.8241 48.1734 20 47.5933 20 47C20 46.2044 19.6839 45.4413 19.1213 44.8787C18.5587 44.3161 17.7957 44 17 44ZM17 48C16.8022 48 16.6089 47.9414 16.4444 47.8315C16.28 47.7216 16.1518 47.5654 16.0761 47.3827C16.0004 47.2 15.9806 46.9989 16.0192 46.8049C16.0578 46.6109 16.153 46.4327 16.2929 46.2929C16.4327 46.153 16.6109 46.0578 16.8049 46.0192C16.9989 45.9806 17.2 46.0004 17.3827 46.0761C17.5654 46.1518 17.7216 46.28 17.8315 46.4444C17.9414 46.6089 18 46.8022 18 47C18 47.2652 17.8946 47.5196 17.7071 47.7071C17.5196 47.8946 17.2652 48 17 48Z" fill="#39519D"/>
<path d="M17 36C16.4067 36 15.8266 36.1759 15.3333 36.5056C14.8399 36.8352 14.4554 37.3038 14.2284 37.852C14.0013 38.4001 13.9419 39.0033 14.0576 39.5853C14.1734 40.1672 14.4591 40.7018 14.8787 41.1213C15.2982 41.5409 15.8328 41.8266 16.4147 41.9424C16.9967 42.0581 17.5999 41.9987 18.1481 41.7716C18.6962 41.5446 19.1648 41.1601 19.4944 40.6667C19.8241 40.1734 20 39.5933 20 39C20 38.2044 19.6839 37.4413 19.1213 36.8787C18.5587 36.3161 17.7957 36 17 36ZM17 40C16.8022 40 16.6089 39.9414 16.4444 39.8315C16.28 39.7216 16.1518 39.5654 16.0761 39.3827C16.0004 39.2 15.9806 38.9989 16.0192 38.8049C16.0578 38.6109 16.153 38.4327 16.2929 38.2929C16.4327 38.153 16.6109 38.0578 16.8049 38.0192C16.9989 37.9806 17.2 38.0004 17.3827 38.0761C17.5654 38.1518 17.7216 38.28 17.8315 38.4444C17.9414 38.6089 18 38.8022 18 39C18 39.2652 17.8946 39.5196 17.7071 39.7071C17.5196 39.8946 17.2652 40 17 40Z" fill="#39519D"/>
<path d="M16 33C16.5523 33 17 32.5523 17 32C17 31.4477 16.5523 31 16 31C15.4477 31 15 31.4477 15 32C15 32.5523 15.4477 33 16 33Z" fill="#39519D"/>
<path d="M16 29C16.5523 29 17 28.5523 17 28C17 27.4477 16.5523 27 16 27C15.4477 27 15 27.4477 15 28C15 28.5523 15.4477 29 16 29Z" fill="#39519D"/>
<path d="M30 58C30.2652 58 30.5196 57.8946 30.7071 57.7071C30.8946 57.5196 31 57.2652 31 57C31 56.7348 30.8946 56.4804 30.7071 56.2929C30.5196 56.1054 30.2652 56 30 56H24C23.7348 56 23.4804 56.1054 23.2929 56.2929C23.1054 56.4804 23 56.7348 23 57C23 57.2652 23.1054 57.5196 23.2929 57.7071C23.4804 57.8946 23.7348 58 24 58H30Z" fill="#39519D"/>
</svg>
